HIERARCHY
ROOT Hips
{
	OFFSET -3.958830 18.904000 13.208200
	CHANNELS 6 Xposition Yposition Zposition Zrotation Yrotation Xrotation 
	JOINT LHipJoint
	{
		OFFSET 0.000000 0.000000 0.000000
		CHANNELS 3 Zrotation Yrotation Xrotation
		JOINT LeftUpLeg
		{
			OFFSET 1.800000 -1.400000 0.085000
			CHANNELS 3 Zrotation Yrotation Xrotation
			JOINT LeftLeg
			{
				OFFSET 2.215000 -6.000000 0.000000
				CHANNELS 3 Zrotation Yrotation Xrotation
				JOINT LeftFoot
				{
					OFFSET 2.500000 -6.900000 0.000000
					CHANNELS 3 Zrotation Yrotation Xrotation
					JOINT LeftToeBase
					{
						OFFSET 0.200000 -0.500000 1.950000
						CHANNELS 3 Zrotation Yrotation Xrotation
						End Site
						{
							OFFSET 0.000000 0.000000 0.000000
						}
					}
				}
			}
		}
	}
	JOINT RHipJoint
	{
		OFFSET 0.000000 0.000000 0.000000
		CHANNELS 3 Zrotation Yrotation Xrotation
		JOINT RightUpLeg
		{
			OFFSET -1.800000 -1.400000 0.085000
			CHANNELS 3 Zrotation Yrotation Xrotation
			JOINT RightLeg
			{
				OFFSET -2.215000 -6.000000 0.000000
				CHANNELS 3 Zrotation Yrotation Xrotation
				JOINT RightFoot
				{
					OFFSET -2.500000 -6.900000 0.000000
					CHANNELS 3 Zrotation Yrotation Xrotation
					JOINT RightToeBase
					{
						OFFSET -0.200000 -0.500000 1.950000
						CHANNELS 3 Zrotation Yrotation Xrotation
						End Site
						{
							OFFSET 0.000000 0.000000 0.000000
						}
					}
				}
			}
		}
	}
	JOINT LowerBack
	{
		OFFSET 0.000000 0.000000 0.000000
		CHANNELS 3 Zrotation Yrotation Xrotation
		JOINT Spine
		{
			OFFSET -0.087000 1.940000 -0.288900
			CHANNELS 3 Zrotation Yrotation Xrotation
			JOINT Spine1
			{
				OFFSET 0.000000 1.950000 0.060000
				CHANNELS 3 Zrotation Yrotation Xrotation
				JOINT Neck
				{
					OFFSET 0.000000 0.000000 0.000000
					CHANNELS 3 Zrotation Yrotation Xrotation
					JOINT Neck1
					{
						OFFSET 0.000000 1.600000 0.340000
						CHANNELS 3 Zrotation Yrotation Xrotation
						JOINT Head
						{
							OFFSET 0.000000 1.667000 -0.240000
							CHANNELS 3 Zrotation Yrotation Xrotation
							End Site
							{
								OFFSET 0.000000 0.000000 0.000000
							}
						}
					}
				}
				JOINT LeftShoulder
				{
					OFFSET 0.000000 0.000000 0.000000
					CHANNELS 3 Zrotation Yrotation Xrotation
					JOINT LeftArm
					{
						OFFSET 2.700000 1.550000 -0.730000
						CHANNELS 3 Zrotation Yrotation Xrotation
						JOINT LeftForeArm
						{
							OFFSET 5.450000 0.000000 0.000000
							CHANNELS 3 Zrotation Yrotation Xrotation
							JOINT LeftHand
							{
								OFFSET 3.450000 0.000000 0.000000
								CHANNELS 3 Zrotation Yrotation Xrotation
								JOINT LeftHandIndex1
								{
									OFFSET 0.750000 0.000000 0.000000
									CHANNELS 3 Zrotation Yrotation Xrotation
									End Site
									{
										OFFSET 0.000000 0.000000 0.000000
									}
								}
							}
						}
					}
				}
				JOINT RightShoulder
				{
					OFFSET 0.000000 0.000000 0.000000
					CHANNELS 3 Zrotation Yrotation Xrotation
					JOINT RightArm
					{
						OFFSET -2.700000 1.550000 -0.730000
						CHANNELS 3 Zrotation Yrotation Xrotation
						JOINT RightForeArm
						{
							OFFSET -5.450000 0.000000 0.000000
							CHANNELS 3 Zrotation Yrotation Xrotation
							JOINT RightHand
							{
								OFFSET -3.450000 0.000000 0.000000
								CHANNELS 3 Zrotation Yrotation Xrotation
								JOINT RightHandIndex1
								{
									OFFSET -0.750000 0.000000 0.000000
									CHANNELS 3 Zrotation Yrotation Xrotation
									End Site
									{
										OFFSET 0.000000 0.000000 0.000000
									}
								}
							}
						}
					}
				}
			}
		}
	}
}
MOTION
Frames: 7
Frame Time: 0.016667
-3.028700 18.430040 1.050440 -10.062256 20.325697 -6.833003 -15.066972 12.798760 2.986998 9.959700 1.509343 -23.298522 -1.404245 3.198535 -0.283700 -1.536676 3.686282 3.447185 -0.602030 -0.763870 -0.939100 18.370977 -11.044449 2.922039 1.616993 1.905150 -0.704871 9.085039 -8.240203 25.911586 -0.483963 -5.762610 2.557731 -0.103350 1.333500 -0.015240 -4.263944 -0.896177 -7.828740 -0.100288 5.322902 26.296235 -10.350735 11.450736 18.522695 -1.909836 -10.157680 -15.708458 -26.039228 13.376897 40.866763 13.867530 -2.052600 -9.622030 22.469192 -14.478041 5.928888 5.479889 -9.471980 -11.617363 81.900637 -13.200930 -19.476322 -4.743498 2.439155 0.891090 0.436170 -0.472790 0.090620 -18.797973 26.075204 8.365419 -15.900188 10.652652 -15.118394 -45.278909 20.131846 -9.678237 2.186820 -1.159265 -1.023250 1.105350 1.044830 0.002720 
-2.986300 18.412890 1.044580 -10.649022 20.541495 -6.668419 -15.003622 12.717225 2.940404 9.620407 1.450991 -24.306012 -0.952288 3.283941 0.825698 -1.667458 3.754965 3.433135 -0.797110 -1.006950 -1.002600 18.436068 -11.148921 2.977218 2.493089 2.215461 -1.431577 8.516964 -8.350394 27.676311 -0.439707 -5.860774 2.516628 -0.200280 1.461380 -0.003380 -4.476872 -0.534100 -7.854321 1.519835 5.756810 26.184864 -10.240845 11.234575 18.179111 -2.443429 -9.812606 -15.581746 -25.173179 13.903694 42.897791 13.723260 -1.643080 -9.533680 22.312258 -15.403366 6.244946 4.824867 -8.571329 -11.133222 82.524851 -16.862558 -22.314939 -4.841528 2.206354 0.952780 0.513640 -0.516240 -0.011340 -17.513077 26.618335 8.837571 -7.884575 13.760330 -16.638623 -60.625966 33.874088 -20.966942 1.916683 -0.872398 -1.143690 1.206660 1.212310 -0.024900 
-2.962140 18.388210 1.064700 -9.863166 20.060077 -5.719831 -15.028271 12.736129 3.070400 10.053297 1.186567 -25.028947 -2.599998 3.589007 1.805148 -1.805103 3.995183 3.289798 -0.960160 -1.274380 -1.002720 18.380749 -11.110283 2.938317 0.864255 3.372639 -3.021869 9.899283 -9.144544 30.294885 -0.410730 -6.114778 2.382858 -0.308640 1.487310 -0.006970 -4.348409 -0.632955 -7.908354 0.538951 7.448648 25.606842 -9.074360 11.730275 17.250083 -2.792050 -9.697249 -16.776436 -26.529854 15.609827 46.519074 15.250190 -1.414410 -9.086790 20.602383 -17.116857 6.628880 5.816915 -7.096250 -10.695357 82.103665 -19.763386 -23.698650 -4.864290 1.991201 1.108400 0.512830 -0.532150 -0.149810 -14.779514 28.632315 10.737670 0.054436 15.275723 -16.974111 -81.344484 44.359565 -39.090127 1.707040 -0.323773 -1.280950 1.237980 1.367710 -0.115340 
-2.943180 18.370660 1.079820 -9.158297 19.825058 -5.612918 -15.061600 12.762324 3.078951 10.068468 0.998097 -24.998236 -3.492382 3.822730 2.730986 -1.865081 4.106733 3.220866 -0.983240 -1.331120 -0.952490 18.344990 -11.044024 2.926047 -0.118288 4.318660 -3.846844 10.934094 -10.014469 33.540464 -0.480853 -6.560048 2.179516 -0.316020 1.458630 0.001230 -4.233963 -0.765628 -7.874235 -1.122975 8.654197 25.721273 -7.548455 11.918586 18.130686 -3.807188 -9.754599 -16.399028 -26.412601 15.707792 46.412495 14.522690 -0.809400 -10.912120 20.401854 -16.239278 6.231894 5.597363 -7.012483 -10.545016 82.491175 -20.987142 -24.872347 -4.844000 1.947750 1.156650 0.497410 -0.523090 -0.208420 -12.773192 28.047009 12.233536 8.603294 19.166486 -14.396226 -100.684152 45.430923 -59.058508 1.548098 0.021865 -1.320250 1.236190 1.400530 -0.158830 
-2.918420 18.343190 1.081920 -9.076803 19.750259 -6.179599 -15.091051 12.787112 3.053248 10.622418 1.053853 -24.948027 -4.283315 4.117278 3.886726 -1.836931 4.222686 3.143158 -0.935840 -1.288950 -0.947150 18.327570 -10.926456 2.957606 -0.304126 4.951466 -3.937621 12.141594 -11.048328 36.256262 -0.625673 -7.082892 1.966507 -0.300930 1.418190 0.069610 -4.150394 -0.960817 -7.854100 -1.623376 9.264426 26.385839 -5.988376 11.860812 19.455594 -4.661691 -9.887806 -16.170838 -26.720419 15.762377 45.642340 13.729080 -0.639970 -11.735400 20.249660 -15.067843 6.036131 3.905594 -7.414530 -10.637943 83.884794 -21.179509 -26.140454 -4.819399 2.056490 1.151650 0.487410 -0.491410 -0.189240 -11.185049 27.089788 13.660652 15.866841 21.319611 -10.868031 -115.356236 43.105127 -77.051621 1.525598 -0.080853 -1.264320 1.165230 1.385630 -0.153750 
-2.906880 18.324480 1.088260 -8.698159 19.554897 -6.698895 -15.192418 12.945109 3.070048 11.231567 1.165013 -25.066690 -5.479133 4.669666 5.538151 -1.811039 4.441536 3.043060 -0.942190 -1.296140 -0.947760 18.238956 -10.691825 2.967146 -0.158695 5.299143 -3.708615 12.841334 -11.883444 38.518939 -0.693119 -7.495415 1.853041 -0.302300 1.423350 0.057870 -3.843456 -1.597630 -7.811205 -3.557932 10.000574 26.959741 -3.423285 11.737975 20.471768 -5.474104 -10.230975 -16.221604 -28.141574 16.489752 44.411821 12.717300 -0.343630 -10.997760 19.902291 -13.738102 6.117833 1.387055 -7.398612 -10.735845 86.046297 -20.924322 -27.324096 -4.854004 2.058824 1.125730 0.507390 -0.521250 -0.202640 -9.413728 26.247936 14.704343 21.041700 21.322094 -7.739640 -126.316860 41.223263 -92.299036 1.528084 -0.236740 -1.264470 1.158510 1.388570 -0.157380 
-2.901310 18.319350 1.058030 -9.169971 19.418121 -9.325959 -15.165430 13.029243 2.928704 12.489069 1.769310 -24.127517 -6.079862 5.385597 8.051215 -1.775010 4.765255 2.913118 -0.951840 -1.323000 -0.949240 18.273612 -10.681633 3.043259 0.990421 4.978950 -1.524546 12.976299 -12.418024 39.617575 -0.776360 -7.845996 1.735313 -0.303030 1.425490 0.076100 -3.938485 -1.632116 -7.809565 -3.260816 9.379098 30.542592 -2.452055 11.124158 21.677771 -6.449236 -10.724175 -15.752969 -28.094255 16.430884 41.269981 10.372790 0.499360 -10.400590 19.878126 -12.420651 6.283830 -0.509615 -4.908912 -11.652998 87.217738 -20.999594 -28.416763 -4.920691 2.146525 1.088840 0.528120 -0.550610 -0.205980 -7.797748 25.272061 14.880425 23.616273 20.232742 -7.066207 -132.787852 38.587089 -100.538367 1.536926 -0.406921 -1.261970 1.125150 1.395200 -0.161700 
